<svg width="468" height="446" viewBox="0 0 468 446" fill="none" xmlns="http://www.w3.org/2000/svg">
<path fill-rule="evenodd" clip-rule="evenodd" d="M243.002 6.71669C239.889 -2.23891 227.224 -2.23889 224.111 6.71671L173.419 152.552C172.045 156.503 168.359 159.182 164.177 159.267L9.81403 162.413C0.334784 162.606 -3.57901 174.651 3.97631 180.379L127.009 273.656C130.342 276.183 131.751 280.518 130.54 284.521L85.8305 432.301C83.085 441.376 93.3315 448.82 101.114 443.405L227.845 355.217C231.278 352.828 235.835 352.828 239.269 355.217L366 443.405C373.782 448.82 384.029 441.376 381.283 432.301L336.574 284.521C335.363 280.518 336.771 276.183 340.104 273.656L463.137 180.379C470.693 174.651 466.779 162.606 457.299 162.413L302.937 159.267C298.755 159.182 295.068 156.503 293.695 152.552L243.002 6.71669ZM222.158 184.065C226.621 183.071 232.628 182.543 240.791 182.543C247.921 182.543 252.112 183.313 254.646 184.551C259.112 186.733 264.501 184.881 266.683 180.415C268.865 175.949 267.013 170.56 262.547 168.378C256.184 165.269 248.558 164.543 240.791 164.543C232.028 164.543 224.541 165.094 218.246 166.495C213.394 167.576 210.337 172.385 211.417 177.236C212.498 182.088 217.306 185.145 222.158 184.065ZM208.356 206.898C208.617 201.934 204.804 197.699 199.841 197.438C194.877 197.177 190.642 200.989 190.381 205.953C190.057 212.113 190.057 219.17 190.057 226.928V227.114C190.057 239.455 198.67 247.515 207.671 251.848C212.149 254.003 217.528 252.12 219.684 247.642C221.84 243.163 219.957 237.785 215.478 235.629C209.668 232.832 208.057 229.708 208.057 227.114C208.057 219.136 208.059 212.536 208.356 206.898ZM277.635 209.815C278.044 204.861 274.359 200.514 269.405 200.106C264.451 199.697 260.105 203.382 259.696 208.336C259.29 213.26 258.541 218.984 257.434 225.638L257.312 226.371V227.114C257.312 230.534 255.506 233.547 250.415 236.027C245.947 238.204 244.089 243.591 246.265 248.059C248.442 252.528 253.829 254.386 258.297 252.21C259.325 251.709 260.337 251.16 261.325 250.563C262.501 251.248 263.85 251.677 265.302 251.766C270.263 252.07 274.532 248.295 274.836 243.334C275.136 238.448 275.298 233.294 275.311 227.858C276.408 221.178 277.193 215.182 277.635 209.815ZM269.954 276.028C271.209 271.219 268.329 266.302 263.519 265.047C258.71 263.791 253.793 266.672 252.538 271.481C249.522 283.032 245.396 290.946 241.073 296.294C237.948 300.159 238.548 305.826 242.414 308.951C246.279 312.076 251.946 311.476 255.071 307.611C261.339 299.857 266.443 289.475 269.954 276.028ZM209.225 305.704C204.593 303.902 199.377 306.196 197.575 310.829C195.773 315.461 198.067 320.677 202.7 322.479C208.194 324.616 214.824 325.891 221.886 325.459C226.847 325.156 230.623 320.888 230.32 315.926C230.016 310.965 225.748 307.189 220.787 307.493C216.524 307.753 212.489 306.973 209.225 305.704Z" fill="#D63A3A"/>
</svg>
